<?xml version="1.0" standalone="no"?><!DOCTYPE svg PUBLIC "-//W3C//DTD SVG 1.1//EN" "http://www.w3.org/Graphics/SVG/1.1/DTD/svg11.dtd"><svg t="1595989092219" class="icon" viewBox="0 0 1024 1024" version="1.1" xmlns="http://www.w3.org/2000/svg" p-id="4927" xmlns:xlink="http://www.w3.org/1999/xlink" width="200" height="200"><defs><style type="text/css"></style></defs><path d="M512 1024a512 512 0 1 1 512-512 512 512 0 0 1-512 512z m0-960a448 448 0 1 0 448 448A448 448 0 0 0 512 64z m-73.376 662.72a32.064 32.064 0 0 1-45.248-45.44L562.752 512l-169.376-169.28a32.064 32.064 0 0 1 45.248-45.44l192 192a32.224 32.224 0 0 1 0 45.44z" p-id="4928" fill="#2c2c2c"></path></svg>