<?xml version="1.0" standalone="no"?><!DOCTYPE svg PUBLIC "-//W3C//DTD SVG 1.1//EN" "http://www.w3.org/Graphics/SVG/1.1/DTD/svg11.dtd"><svg t="1595943827610" class="icon" viewBox="0 0 1024 1024" version="1.1" xmlns="http://www.w3.org/2000/svg" p-id="2109" xmlns:xlink="http://www.w3.org/1999/xlink" width="200" height="200"><defs><style type="text/css"></style></defs><path d="M512 162c47.3 0 93.1 9.2 136.2 27.5 41.7 17.6 79.1 42.9 111.3 75 32.2 32.2 57.4 69.6 75 111.3C852.8 418.9 862 464.7 862 512s-9.2 93.1-27.5 136.2c-17.6 41.7-42.9 79.1-75 111.3-32.2 32.2-69.6 57.4-111.3 75C605.1 852.8 559.3 862 512 862s-93.1-9.2-136.2-27.5c-41.7-17.6-79.1-42.9-111.3-75-32.2-32.2-57.4-69.6-75-111.3C171.2 605.1 162 559.3 162 512s9.2-93.1 27.5-136.2c17.6-41.7 42.9-79.1 75-111.3 32.2-32.2 69.6-57.4 111.3-75C418.9 171.2 464.7 162 512 162m0-80C274.5 82 82 274.5 82 512s192.5 430 430 430 430-192.5 430-430S749.5 82 512 82z" fill="#2c2c2c" p-id="2110"></path><path d="M441.3 320.3c-12.8 0-25.6 4.9-35.4 14.6-19.5 19.5-19.5 51.2 0 70.7L512.3 512 405.9 618.4c-19.5 19.5-19.5 51.2 0 70.7 9.8 9.8 22.6 14.6 35.4 14.6s25.6-4.9 35.4-14.6l141.4-141.4c9.8-9.8 14.7-22.8 14.6-35.6 0.1-12.9-4.8-25.8-14.6-35.6L476.6 334.9c-9.7-9.7-22.5-14.6-35.3-14.6z" fill="#2c2c2c" p-id="2111"></path></svg>